<mxfile host="app.diagrams.net" modified="2023-12-06T03:30:14.553Z" agent="Mozilla/5.0 (Windows NT 10.0; Win64; x64) AppleWebKit/537.36 (KHTML, like Gecko) Chrome/119.0.0.0 Safari/537.36" etag="gleYxM2kxYA3P8kiSAvH" version="22.1.5" type="device">
  <diagram id="C5RBs43oDa-KdzZeNtuy" name="Page-1">
    <mxGraphModel dx="1120" dy="478" grid="1" gridSize="10" guides="1" tooltips="1" connect="1" arrows="1" fold="1" page="1" pageScale="1" pageWidth="827" pageHeight="1169" math="0" shadow="0">
      <root>
        <mxCell id="WIyWlLk6GJQsqaUBKTNV-0" />
        <mxCell id="WIyWlLk6GJQsqaUBKTNV-1" parent="WIyWlLk6GJQsqaUBKTNV-0" />
        <mxCell id="e3rrRO2QBJHNu68tRwAx-0" value="" style="edgeStyle=orthogonalEdgeStyle;rounded=0;orthogonalLoop=1;jettySize=auto;html=1;entryX=0.5;entryY=0;entryDx=0;entryDy=0;" parent="WIyWlLk6GJQsqaUBKTNV-1" source="e3rrRO2QBJHNu68tRwAx-1" target="e3rrRO2QBJHNu68tRwAx-17" edge="1">
          <mxGeometry relative="1" as="geometry">
            <mxPoint x="419" y="160" as="targetPoint" />
          </mxGeometry>
        </mxCell>
        <mxCell id="e3rrRO2QBJHNu68tRwAx-1" value="start" style="ellipse;whiteSpace=wrap;html=1;" parent="WIyWlLk6GJQsqaUBKTNV-1" vertex="1">
          <mxGeometry x="359" y="40" width="120" height="80" as="geometry" />
        </mxCell>
        <mxCell id="e3rrRO2QBJHNu68tRwAx-2" value="" style="edgeStyle=orthogonalEdgeStyle;rounded=0;orthogonalLoop=1;jettySize=auto;html=1;exitX=0.5;exitY=1;exitDx=0;exitDy=0;" parent="WIyWlLk6GJQsqaUBKTNV-1" source="e3rrRO2QBJHNu68tRwAx-17" target="e3rrRO2QBJHNu68tRwAx-5" edge="1">
          <mxGeometry relative="1" as="geometry">
            <mxPoint x="419" y="240" as="sourcePoint" />
          </mxGeometry>
        </mxCell>
        <mxCell id="e3rrRO2QBJHNu68tRwAx-4" value="" style="edgeStyle=orthogonalEdgeStyle;rounded=0;orthogonalLoop=1;jettySize=auto;html=1;" parent="WIyWlLk6GJQsqaUBKTNV-1" source="e3rrRO2QBJHNu68tRwAx-5" target="e3rrRO2QBJHNu68tRwAx-8" edge="1">
          <mxGeometry relative="1" as="geometry" />
        </mxCell>
        <mxCell id="e3rrRO2QBJHNu68tRwAx-5" value="&lt;div style=&quot;background-color: rgb(31, 31, 31); line-height: 19px;&quot;&gt;&lt;font face=&quot;Consolas, Courier New, monospace&quot; color=&quot;#cccccc&quot;&gt;file = fopen(&quot;bt01.txt&quot;,&quot;w+&quot;)&lt;/font&gt;&lt;br&gt;&lt;/div&gt;" style="rounded=0;whiteSpace=wrap;html=1;" parent="WIyWlLk6GJQsqaUBKTNV-1" vertex="1">
          <mxGeometry x="296.5" y="280" width="245" height="60" as="geometry" />
        </mxCell>
        <mxCell id="e3rrRO2QBJHNu68tRwAx-6" value="" style="edgeStyle=orthogonalEdgeStyle;rounded=0;orthogonalLoop=1;jettySize=auto;html=1;" parent="WIyWlLk6GJQsqaUBKTNV-1" source="e3rrRO2QBJHNu68tRwAx-8" target="e3rrRO2QBJHNu68tRwAx-9" edge="1">
          <mxGeometry relative="1" as="geometry" />
        </mxCell>
        <mxCell id="e3rrRO2QBJHNu68tRwAx-7" value="" style="edgeStyle=orthogonalEdgeStyle;rounded=0;orthogonalLoop=1;jettySize=auto;html=1;" parent="WIyWlLk6GJQsqaUBKTNV-1" source="e3rrRO2QBJHNu68tRwAx-8" target="e3rrRO2QBJHNu68tRwAx-11" edge="1">
          <mxGeometry relative="1" as="geometry" />
        </mxCell>
        <mxCell id="e3rrRO2QBJHNu68tRwAx-8" value="file==NULL" style="rhombus;whiteSpace=wrap;html=1;rounded=0;" parent="WIyWlLk6GJQsqaUBKTNV-1" vertex="1">
          <mxGeometry x="379" y="390" width="80" height="80" as="geometry" />
        </mxCell>
        <mxCell id="e3rrRO2QBJHNu68tRwAx-9" value="printf(&quot;Khong the mo file!&quot;)" style="shape=parallelogram;perimeter=parallelogramPerimeter;whiteSpace=wrap;html=1;fixedSize=1;" parent="WIyWlLk6GJQsqaUBKTNV-1" vertex="1">
          <mxGeometry x="530" y="400" width="190" height="60" as="geometry" />
        </mxCell>
        <mxCell id="e3rrRO2QBJHNu68tRwAx-10" value="" style="edgeStyle=orthogonalEdgeStyle;rounded=0;orthogonalLoop=1;jettySize=auto;html=1;" parent="WIyWlLk6GJQsqaUBKTNV-1" source="e3rrRO2QBJHNu68tRwAx-11" target="e3rrRO2QBJHNu68tRwAx-15" edge="1">
          <mxGeometry relative="1" as="geometry" />
        </mxCell>
        <mxCell id="e3rrRO2QBJHNu68tRwAx-11" value="&lt;div style=&quot;background-color: rgb(31, 31, 31); line-height: 19px;&quot;&gt;&lt;div style=&quot;line-height: 19px;&quot;&gt;&lt;font face=&quot;Consolas, Courier New, monospace&quot; color=&quot;#cccccc&quot;&gt;fgets(str, sizeof(str), stdin)&lt;/font&gt;&lt;br&gt;&lt;/div&gt;&lt;/div&gt;" style="rounded=0;whiteSpace=wrap;html=1;" parent="WIyWlLk6GJQsqaUBKTNV-1" vertex="1">
          <mxGeometry x="308" y="540" width="222" height="60" as="geometry" />
        </mxCell>
        <mxCell id="e3rrRO2QBJHNu68tRwAx-12" value="true" style="text;html=1;strokeColor=none;fillColor=none;align=center;verticalAlign=middle;whiteSpace=wrap;rounded=0;" parent="WIyWlLk6GJQsqaUBKTNV-1" vertex="1">
          <mxGeometry x="459" y="430" width="60" height="30" as="geometry" />
        </mxCell>
        <mxCell id="e3rrRO2QBJHNu68tRwAx-13" value="false" style="text;html=1;strokeColor=none;fillColor=none;align=center;verticalAlign=middle;whiteSpace=wrap;rounded=0;" parent="WIyWlLk6GJQsqaUBKTNV-1" vertex="1">
          <mxGeometry x="419" y="490" width="60" height="30" as="geometry" />
        </mxCell>
        <mxCell id="nc2ImaStvSvT1RqVb8Rp-3" value="" style="edgeStyle=orthogonalEdgeStyle;rounded=0;orthogonalLoop=1;jettySize=auto;html=1;" edge="1" parent="WIyWlLk6GJQsqaUBKTNV-1" source="e3rrRO2QBJHNu68tRwAx-15" target="nc2ImaStvSvT1RqVb8Rp-2">
          <mxGeometry relative="1" as="geometry" />
        </mxCell>
        <mxCell id="e3rrRO2QBJHNu68tRwAx-15" value="fclose(file)" style="whiteSpace=wrap;html=1;rounded=0;" parent="WIyWlLk6GJQsqaUBKTNV-1" vertex="1">
          <mxGeometry x="359" y="640" width="120" height="60" as="geometry" />
        </mxCell>
        <mxCell id="e3rrRO2QBJHNu68tRwAx-16" value="end" style="ellipse;whiteSpace=wrap;html=1;rounded=0;" parent="WIyWlLk6GJQsqaUBKTNV-1" vertex="1">
          <mxGeometry x="368.5" y="850" width="101" height="80" as="geometry" />
        </mxCell>
        <mxCell id="e3rrRO2QBJHNu68tRwAx-17" value="FILE *file&lt;br&gt;char str[100]" style="rounded=0;whiteSpace=wrap;html=1;" parent="WIyWlLk6GJQsqaUBKTNV-1" vertex="1">
          <mxGeometry x="359" y="170" width="120" height="60" as="geometry" />
        </mxCell>
        <mxCell id="nc2ImaStvSvT1RqVb8Rp-4" value="" style="edgeStyle=orthogonalEdgeStyle;rounded=0;orthogonalLoop=1;jettySize=auto;html=1;" edge="1" parent="WIyWlLk6GJQsqaUBKTNV-1" source="nc2ImaStvSvT1RqVb8Rp-2" target="e3rrRO2QBJHNu68tRwAx-16">
          <mxGeometry relative="1" as="geometry" />
        </mxCell>
        <mxCell id="nc2ImaStvSvT1RqVb8Rp-2" value="printf(&quot;Chuoi da duoc ghi vao file bt01.txt.\n&quot;)" style="shape=parallelogram;perimeter=parallelogramPerimeter;whiteSpace=wrap;html=1;fixedSize=1;" vertex="1" parent="WIyWlLk6GJQsqaUBKTNV-1">
          <mxGeometry x="313.5" y="750" width="211" height="60" as="geometry" />
        </mxCell>
      </root>
    </mxGraphModel>
  </diagram>
</mxfile>
